<?xml version="1.0" encoding="UTF-8" standalone="no"?>
<svg
   xmlns:dc="http://purl.org/dc/elements/1.1/"
   xmlns:cc="http://creativecommons.org/ns#"
   xmlns:rdf="http://www.w3.org/1999/02/22-rdf-syntax-ns#"
   xmlns:svg="http://www.w3.org/2000/svg"
   xmlns="http://www.w3.org/2000/svg"
   xmlns:sodipodi="http://sodipodi.sourceforge.net/DTD/sodipodi-0.dtd"
   xmlns:inkscape="http://www.inkscape.org/namespaces/inkscape"
   version="1.0"
   width="1280.000000pt"
   height="960.000000pt"
   viewBox="0 0 1280.000000 960.000000"
   preserveAspectRatio="xMidYMid meet"
   id="svg3729"
   sodipodi:docname="logo.svg"
   inkscape:version="0.92.4 (5da689c313, 2019-01-14)">
  <metadata
     id="metadata3735">
    <rdf:RDF>
      <cc:Work
         rdf:about="">
        <dc:format>image/svg+xml</dc:format>
        <dc:type
           rdf:resource="http://purl.org/dc/dcmitype/StillImage" />
      </cc:Work>
    </rdf:RDF>
  </metadata>
  <defs
     id="defs3733" />
  <sodipodi:namedview
     pagecolor="#ffffff"
     bordercolor="#666666"
     borderopacity="1"
     objecttolerance="10"
     gridtolerance="10"
     guidetolerance="10"
     inkscape:pageopacity="0"
     inkscape:pageshadow="2"
     inkscape:window-width="1920"
     inkscape:window-height="1001"
     id="namedview3731"
     showgrid="false"
     inkscape:zoom="0.63125"
     inkscape:cx="853.33333"
     inkscape:cy="640"
     inkscape:window-x="-9"
     inkscape:window-y="-9"
     inkscape:window-maximized="1"
     inkscape:current-layer="svg3729" />
  <g
     transform="translate(0.000000,960.000000) scale(0.100000,-0.100000)"
     fill="#000000"
     stroke="none"
     id="g3727"
     style="fill:#939dac">
    <path
       d="M6595 9579 c-44 -28 -186 -78 -290 -101 -127 -29 -340 -29 -487 0 -59 12 -182 27 -274 33 -581 41 -1064 -140 -1349 -506 -190 -243 -315 -572 -340 -895 -6 -68 -12 -93 -33 -123 -52 -77 -223 -217 -266 -217 -17 0 -18 6 -12 103 16 242 53 506 103 727 14 63 26 123 27 134 2 37 -143 66 -257 52 l-56 -7 -15 -47 c-80 -247 -82 -714 -6 -1230 11 -74 20 -140 20 -148 0 -8 -22 -19 -52 -28 -300 -83 -451 -127 -606 -178 l-183 -59 -71 11 c-357 55 -895 -18 -1184 -160 -425 -208 -835 -759 -1066 -1430 -71 -209 -146 -550 -168 -770 -6 -63 -15 -151 -20 -194 -18 -148 -14 -232 26 -576 102 -864 564 -1633 1329 -2210 61 -46 112 -86 115 -90 10 -15 268 -179 385 -245 155 -89 476 -244 585 -283 298 -109 543 -163 925 -204 185 -20 699 -17 855 5 317 45 582 136 775 269 l81 55 149 6 c331 14 627 93 952 253 l151 75 119 -59 c526 -264 1204 -486 1768 -581 679 -114 1240 -85 1760 90 468 158 868 438 1177 823 309 385 524 789 693 1301 355 1078 349 2133 -15 2870 -216 438 -523 752 -965 986 -63 33 -115 65 -115 71 0 6 7 8 15 4 128 -49 432 -56 610 -14 388 91 777 331 1171 723 152 152 247 265 234 280 -6 8 -56 14 -133 18 -83 4 -154 14 -222 31 -113 29 -273 104 -355 166 -79 59 -353 194 -478 234 -189 61 -256 71 -462 70 -202 -1 -251 -10 -417 -73 -257 -100 -528 -355 -691 -653 -35 -63 -41 -69 -103 -97 -76 -34 -172 -61 -218 -61 -23 0 -31 5 -31 18 0 45 259 474 389 646 29 38 50 74 47 81 -8 23 -128 95 -184 111 l-56 17 -23 -29 c-103 -125 -225 -359 -313 -598 -48 -131 -151 -473 -165 -550 -4 -19 -13 -40 -20 -46 -18 -15 -108 36 -260 150 -268 199 -379 252 -685 328 -627 156 -1211 103 -1728 -157 -83 -42 -84 -42 -112 -24 -245 157 -434 255 -612 319 -66 24 -108 44 -108 53 0 7 28 43 61 79 280 299 538 765 703 1269 49 151 53 172 34 191 -15 15 -16 15 -53 -9z m-2505 -1781 c52 -25 123 -56 158 -69 34 -13 62 -29 62 -35 0 -6 -26 -33 -57 -60 -32 -26 -88 -76 -125 -111 -56 -53 -72 -63 -102 -63 -19 0 -115 -14 -213 -31 -251 -44 -266 -45 -262 -27 5 21 426 451 436 445 5 -2 51 -24 103 -49z m6024 -228 c113 -135 273 -272 416 -356 87 -51 60 -55 -77 -10 -190 61 -242 68 -553 77 -285 7 -377 18 -387 45 -3 8 3 38 14 67 l20 52 239 96 c131 54 246 98 254 98 9 1 42 -30 74 -69z"
       id="path3725"
       style="fill:#939dac" />
  </g>
</svg>
